Coordinates
version=1
nRows=19
nColumns=24
inDegrees=yes

Units are S.I. units (second, meters, Newtons, ...)
Angles are in degrees.

endheader
time	pelvis_tilt	pelvis_list	pelvis_rotation	pelvis_tx	pelvis_ty	pelvis_tz	hip_flexion_r	hip_adduction_r	hip_rotation_r	knee_angle_r	ankle_angle_r	subtalar_angle_r	mtp_angle_r	hip_flexion_l	hip_adduction_l	hip_rotation_l	knee_angle_l	ankle_angle_l	subtalar_angle_l	mtp_angle_l	lumbar_extension	lumbar_bending	lumbar_rotation
      3.88000000	    -12.83848726	      9.14137630	     -5.90828606	     -0.76921181	     -0.03810223	     -0.28016258	     13.36410677	    -15.29083094	     -6.46655116	    -57.62816397	    -26.90338045	    -16.52865653	      3.76347550	     32.38178053	      8.27440451	     -7.55973435	    -24.10424895	     -0.75741016	    -16.94717667	    -13.55584754	     10.89638991	     -8.58743815	      9.60390112
      3.88500000	    -12.88799122	      8.99699058	     -5.75250783	     -0.76184335	     -0.03662370	     -0.28083752	     14.42795583	    -15.02881351	     -6.30878969	    -58.70854324	    -25.84040893	    -17.28386339	      3.75701349	     31.72020043	      8.33110435	     -7.37097871	    -23.73629779	     -0.37650239	    -16.73544678	    -13.33066516	     10.87080613	     -8.46579386	      9.35507256
      3.89000000	    -12.94365407	      8.77683561	     -5.59407388	     -0.75465140	     -0.03512217	     -0.28152813	     15.49085662	    -14.68114908	     -6.17459239	    -59.70072178	    -24.69014851	    -17.76344544	      3.70051686	     31.08873112	      8.30782862	     -7.17653654	    -23.40028886	     -0.08192733	    -16.58543591	    -13.07740442	     10.81142871	     -8.26091951	      9.05164917
      3.89500000	    -12.94645941	      8.56066787	     -5.43141647	     -0.74734404	     -0.03353342	     -0.28223639	     16.45729306	    -14.36393946	     -6.10945758	    -60.55176194	    -23.58783735	    -18.11683302	      3.73133645	     30.35638077	      8.31477567	     -6.88971469	    -22.99318460	      0.18192624	    -16.51141140	    -12.87419569	     10.72192463	     -8.06356541	      8.76146574
      3.90000000	    -12.94202258	      8.31501804	     -5.27534547	     -0.74000058	     -0.03190897	     -0.28293252	     17.38821223	    -14.01587143	     -6.06707611	    -61.27753080	    -22.55055438	    -18.33097422	      3.87285130	     29.59311183	      8.29316138	     -6.55322996	    -22.55470323	      0.44650852	    -16.46072361	    -12.73218037	     10.63624843	     -7.82923283	      8.48135349
      3.90500000	    -12.94322421	      8.04693660	     -5.09521220	     -0.73274741	     -0.03031539	     -0.28366447	     18.30922832	    -13.66051861	     -6.07344142	    -61.91695806	    -21.49808037	    -18.34403916	      4.09551324	     28.84854927	      8.25392780	     -6.19903730	    -22.12939502	      0.67769497	    -16.42485695	    -12.62065725	     10.53767189	     -7.57473275	      8.16046427
      3.91000000	    -12.94359522	      7.76706741	     -4.89243478	     -0.72553572	     -0.02874516	     -0.28442281	     19.20788685	    -13.30922755	     -6.12350989	    -62.46213062	    -20.45707212	    -18.19594814	      4.40030632	     28.10218316	      8.20966209	     -5.81849307	    -21.69460297	      0.87853065	    -16.41866619	    -12.54330710	     10.43244578	     -7.31193298	      7.80953775
      3.91500000	    -12.93662573	      7.47699265	     -4.67272075	     -0.71834861	     -0.02719365	     -0.28520242	     20.07596290	    -12.96142919	     -6.21158171	    -62.91012481	    -19.45103520	    -17.93538288	      4.79206050	     27.34210771	      8.15966799	     -5.40710089	    -21.24524637	      1.06233128	    -16.43158790	    -12.50297378	     10.31700600	     -7.03886629	      7.44389284
      3.92000000	    -12.92184606	      7.18008144	     -4.42999792	     -0.71119521	     -0.02566837	     -0.28600704	     20.91178435	    -12.62060029	     -6.33509468	    -63.26397260	    -18.47012840	    -17.57644179	      5.28847503	     26.56937238	      8.10717041	     -4.96830181	    -20.78268871	      1.23707055	    -16.44583425	    -12.49744492	     10.18733872	     -6.76145901	      7.05839139
      3.92500000	    -12.88774978	      6.94741904	     -4.14350590	     -0.70399708	     -0.02418255	     -0.28685542	     21.70417743	    -12.38555079	     -6.49739792	    -63.53127419	    -17.50766446	    -17.11338656	      6.14044371	     25.75425606	      8.13666150	     -4.47219741	    -20.27239817	      1.36771939	    -16.45362584	    -12.57304260	     10.05212904	     -6.56774006	      6.62758498
      3.93000000	    -12.82992623	      6.62502932	     -3.88596391	     -0.69688097	     -0.02265047	     -0.28777661	     22.40907871	    -12.04004989	     -6.61913204	    -63.52916680	    -17.36481605	    -17.11006961	     10.36933750	     24.91942185	      8.06643665	     -3.99096304	    -19.78655267	      1.68636977	    -16.44731668	    -13.34386227	      9.87666571	     -6.25239994	      6.25313018
      3.93500000	    -12.81045890	      6.30907296	     -3.60761539	     -0.68976602	     -0.02123856	     -0.28854119	     23.17473498	    -11.69450940	     -6.81361652	    -63.61232727	    -16.39794882	    -16.60162445	     10.81071404	     24.13013744	      7.95977763	     -3.61307385	    -19.29050465	      1.90189364	    -16.31535010	    -13.32486237	      9.75079092	     -5.96735069	      5.82063331
      3.94000000	    -12.73589639	      6.03173992	     -3.30548747	     -0.68271523	     -0.01986362	     -0.28939256	     23.86582123	    -11.41756747	     -7.01953239	    -63.61313520	    -15.45052159	    -16.07755124	     11.62097693	     23.27347248	      7.90996748	     -3.15904848	    -18.76394735	      2.07577742	    -16.25066005	    -13.36289545	      9.55356868	     -5.72432425	      5.40190924
      3.94500000	    -12.67186477	      5.69010728	     -2.99985958	     -0.67558722	     -0.01846320	     -0.29030597	     24.49058967	    -11.06841149	     -7.21815760	    -63.35942918	    -15.13412076	    -15.94451407	     15.10570534	     22.41699465	      7.78337706	     -2.76840837	    -18.22291749	      2.30553199	    -16.15965372	    -13.66626010	      9.38522860	     -5.39723639	      4.94422615
      3.95000000	    -12.65022634	      5.35440027	     -2.70681643	     -0.66860670	     -0.01725097	     -0.29107168	     25.20785834	    -10.70199853	     -7.42916794	    -63.20031354	    -14.19952608	    -15.44266949	     15.47929572	     21.64815568	      7.61584258	     -2.48431892	    -17.73460500	      2.55938453	    -15.93571200	    -13.58810194	      9.24439569	     -5.08826536	      4.51468190
      3.95500000	    -12.53902804	      5.06065872	     -2.36476441	     -0.66151475	     -0.01596372	     -0.29197575	     25.75471958	    -10.43107094	     -7.67757033	    -62.84088971	    -13.62121213	    -15.17176801	     17.79841443	     20.73962874	      7.52198171	     -2.10602566	    -17.15916649	      2.65883145	    -15.82368674	    -13.43896919	      9.02611652	     -4.82834923	      4.06223641
      3.96000000	    -12.51536191	      4.75131117	     -2.05595676	     -0.65452158	     -0.01489262	     -0.29272581	     26.42739751	    -10.09926563	     -7.88781246	    -62.51789328	    -12.71186956	    -14.69257493	     18.14727554	     19.97350155	      7.35912350	     -1.86793888	    -16.65997763	      2.89593873	    -15.54610324	    -13.33664948	      8.89711573	     -4.55111967	      3.62625743
      3.96500000	    -12.45240167	      4.45171415	     -1.73262729	     -0.64753198	     -0.01385801	     -0.29352434	     27.03061290	     -9.79835148	     -8.12203906	    -62.10478290	    -11.86980021	    -14.26193426	     18.56744505	     19.16115340	      7.21169858	     -1.58725826	    -16.14556794	      3.10304421	    -15.32124818	    -13.22674106	      8.72815177	     -4.28020412	      3.18527837
      3.97000000	    -12.37616955	      4.16459970	     -1.40429520	     -0.64054089	     -0.01290031	     -0.29434567	     27.60058176	     -9.52096515	     -8.35908219	    -61.61258518	    -11.11763841	    -13.89384604	     19.04831838	     18.33914283	      7.07266707	     -1.30202097	    -15.63139952	      3.29738187	    -15.12166681	    -13.10081989	      8.54964022	     -4.02009368	      2.75474147
